<svg width="173" height="172" viewBox="0 0 173 172" fill="none" xmlns="http://www.w3.org/2000/svg">
<g clip-path="url(#clip0_47_7581)">
<rect x="0.894531" y="0.238281" width="171.523" height="171.523" rx="30.0918" fill="#131313"/>
<path fill-rule="evenodd" clip-rule="evenodd" d="M78.3905 17.3815L78.3906 17.3864L78.3907 17.3915C78.4007 17.7666 78.4107 18.1423 78.4203 18.5187C78.3897 18.5371 78.3592 18.556 78.3287 18.5756C78.3251 20.0314 78.3309 21.4308 78.3367 22.8132L78.3367 22.8154C78.3387 23.2977 78.3407 23.778 78.3423 24.2578C78.3363 24.2518 78.3249 24.2404 78.4275 24.2393C79.6379 24.2391 80.8439 24.2386 82.0463 24.2381H82.0463H82.0464H82.0464H82.0464H82.0465H82.0465H82.0466H82.0466C86.6293 24.2362 91.1609 24.2344 95.6926 24.2495C96.3675 24.2518 96.7818 24.2261 96.7441 23.3414C96.7061 22.4503 96.6932 21.5581 96.6803 20.6655V20.6654V20.6653V20.6652V20.6651V20.665V20.6648V20.6647V20.6646V20.6639C96.6659 19.6695 96.6515 18.6745 96.6024 17.6798C96.6326 17.6365 96.6639 17.57 96.6999 17.4841C96.7084 16.3168 96.7103 15.1705 96.7123 14.0358V14.0335V14.0329V14.0323V14.0317V14.0311V14.0305V14.0299V14.0293V14.0286V14.028V14.0274V14.0268V14.0262V14.0255V14.0249V14.0243V14.0236V14.023V14.0224V14.0217V14.0211V14.0204V14.0198V14.0191V14.0185C96.7146 12.6518 96.7169 11.3019 96.7307 9.95208C96.7405 8.98169 96.6146 8.03966 96.3839 7.10284C95.3161 2.76574 91.082 -0.161556 86.5116 0.282777C82.2021 0.70174 78.5035 4.42522 78.3435 8.71955C78.2366 11.5882 78.313 14.4637 78.3903 17.3767L78.3905 17.3815ZM121.279 34.1522C123.612 35.5485 125.638 37.1936 127.623 38.922C128.769 39.9199 129.851 40.9768 130.954 42.0541L130.954 42.0541L130.954 42.0542C131.359 42.45 131.767 42.8485 132.182 43.2478C132.18 43.2914 132.176 43.334 132.173 43.3758C134.049 45.0739 135.592 47.0644 137.122 49.1545L137.081 49.1693C137.059 49.1773 137.036 49.1851 137.013 49.1926L137.039 49.207C139.058 51.704 140.667 54.3643 142.1 57.1528C143.206 59.3028 144.269 61.4602 145.104 63.8105C145.161 63.9655 145.193 64.1023 145.202 64.2236C146.642 67.4991 147.483 71.0262 148.188 74.5914C148.317 75.2412 148.422 75.8955 148.542 76.6338C148.601 77.0003 148.663 77.3875 148.734 77.805C140.943 73.5253 133.323 69.4295 125.586 65.4061C125.589 65.3654 125.593 65.3264 125.599 65.2892C120.521 62.8011 115.501 60.284 110.489 57.7711L110.488 57.7706L110.487 57.7701L110.474 57.7639L110.443 57.7481C108.839 56.9439 107.236 56.1402 105.632 55.3379C104.2 54.6217 102.76 53.9226 101.309 53.2182L101.306 53.217L101.305 53.2164C100.077 52.62 98.8401 52.0199 97.5946 51.4024C97.5928 51.3746 97.5915 51.3474 97.5909 51.3208L97.5904 51.2906C96.843 51.2621 96.6933 50.8462 96.7096 50.2062C96.7347 49.2138 96.736 48.2209 96.7374 47.2048V47.2032C96.7382 46.5437 96.7391 45.8745 96.7465 45.1894L96.8581 45.1846L96.8368 45.1647C96.7435 41.6063 96.7242 38.1261 96.7203 34.5429L96.8133 34.5015L96.9093 34.459L96.9518 34.4404C96.9132 34.4405 96.8747 34.4404 96.8361 34.44C96.7444 32.0404 96.72 29.6408 96.6957 27.2414V27.2412V27.2409V27.2407V27.2404V27.2401V27.2399V27.2396V27.2393V27.2391V27.2388L96.6956 27.2295C96.6885 26.5345 96.6815 25.8395 96.6728 25.1445C96.6645 24.4858 96.9662 24.4254 97.495 24.5257C105.756 26.0924 113.543 28.8492 120.525 33.6455C120.645 33.7277 120.776 33.793 120.915 33.8624C121.05 33.9294 121.192 34.0003 121.34 34.094C121.304 34.1114 121.269 34.1274 121.233 34.1418L121.279 34.1522ZM41.4504 43.1694C37.7064 47.1034 34.4806 51.3314 32.0987 56.192C32.0476 56.2037 31.9965 56.2179 31.9466 56.2361C30.3159 59.2021 28.8507 62.1606 27.939 65.4367C27.9114 65.4315 27.8837 65.4263 27.8561 65.4209C26.9218 67.9843 26.2238 70.529 25.6571 73.1167C25.5015 73.8271 25.6331 74.1855 26.226 74.5403C27.6321 75.3813 29.0384 76.2439 30.3705 77.1807C32.7288 78.8392 35.1289 80.4794 37.6766 82.0064L37.6724 82.0083C38.3939 82.52 39.0617 82.9783 39.7402 83.42C43.2793 85.7244 46.8212 88.0246 50.3768 90.2469C50.389 90.2962 50.4026 90.3461 50.4177 90.3968C51.7565 91.2828 53.0916 92.1776 54.4251 93.0713C57.3687 95.044 60.3043 97.0115 63.2544 98.8683L63.2549 98.8701C66.6486 101.189 70.0779 103.331 73.6823 105.169C79.0492 107.906 84.64 109.764 90.7893 109.19C93.9588 108.894 96.8947 108.015 99.0657 105.505C101.151 103.094 101.445 99.8998 99.8145 97.6103C99.6922 97.5191 99.6566 97.4474 99.6572 97.3715C99.6584 97.3844 99.6835 97.3782 99.5901 97.3264L99.5634 97.3111L99.6577 97.3081C98.0541 95.3378 95.8643 94.5431 93.5872 93.9392C91.1955 93.3048 88.7449 93.0669 86.2951 92.829C85.4117 92.7432 84.5284 92.6575 83.6479 92.5531C78.2248 91.9105 72.8715 91.0582 68.0106 88.0921L68.0331 88.0733C65.2578 86.1415 63.2122 83.6575 61.5224 80.8671C61.5274 80.795 61.5222 80.7114 61.5049 80.6147C59.2656 75.7924 58.5996 70.958 60.6199 65.8767L60.6542 65.8872L60.677 65.8944C60.6924 65.8993 60.7079 65.9043 60.7233 65.9094C60.8397 65.6942 60.9387 65.4911 61.0337 65.2963C61.1237 65.1118 61.21 64.9346 61.3041 64.7617C63.8313 60.1173 67.7425 57.0013 72.3449 54.6166C72.4412 54.6086 72.538 54.6001 72.6353 54.5913C73.4921 54.2619 74.3277 53.926 75.155 53.5934L75.1551 53.5933L75.1558 53.593L75.1559 53.593L75.1559 53.593L75.1559 53.593L75.156 53.593L75.156 53.593C76.0157 53.2474 76.8664 52.9054 77.7227 52.578C78.1773 52.4042 78.3379 52.19 78.3329 51.7075C78.3244 50.888 78.318 50.0684 78.3116 49.2475V49.2469V49.2464V49.2458V49.2453V49.2452V49.2451V49.2451V49.245V49.2449V49.2449V49.2448V49.2447V49.2447V49.2446V49.2445V49.2445V49.2444V49.2443V49.2443V49.2442V49.2441V49.244V49.244V49.2439V49.2438V49.2438V49.2437V49.2436V49.2435V49.2435V49.2434V49.2433V49.2432V49.2431V49.2431V49.243V49.2429V49.2428V49.2427V49.2427C78.2938 46.9665 78.2759 44.6796 78.2144 42.3523L78.199 42.3376L78.3014 42.3241C78.3068 39.4065 78.2966 36.5918 78.2138 33.6989L78.1902 33.6775L78.3019 33.6741C78.32 30.4608 78.3225 27.3505 78.2432 24.2385C74.0611 24.7789 70.0571 25.7357 66.1622 27.1175C61.3492 28.8251 56.7553 30.9852 52.6379 33.8985C52.5318 33.9359 52.425 33.9778 52.3173 34.0248C48.3458 36.6774 44.684 39.589 41.5573 43.1771L41.4504 43.1694ZM78.2753 147.959L78.2781 147.974C78.2807 147.988 78.2839 148.003 78.2874 148.019C78.2938 148.049 78.3012 148.084 78.3084 148.128C78.3062 150.248 78.3053 152.348 78.3044 154.436V154.441C78.3033 157.074 78.3021 159.689 78.2985 162.303C78.2975 163.045 78.37 163.767 78.528 164.496C79.528 169.112 83.7255 172.162 88.5053 171.715C92.9847 171.296 96.6743 167.313 96.7143 162.735C96.7577 157.764 96.7108 152.793 96.6548 147.782C96.6968 147.78 96.7456 147.777 96.7944 147.777C101.252 147.002 105.517 145.871 109.653 144.252C114.275 142.444 118.526 139.965 122.583 137.146C122.644 137.139 122.706 137.131 122.767 137.123C123.021 136.979 123.204 136.857 123.382 136.728C126.398 134.544 129.215 132.135 131.709 129.319L131.843 129.327C132.21 128.977 132.509 128.654 132.808 128.331C134.477 126.525 136.019 124.621 137.33 122.458C137.358 122.477 137.385 122.495 137.413 122.515C137.949 121.752 138.443 120.998 138.932 120.252C139.137 119.94 139.341 119.629 139.547 119.319C141.128 116.938 142.451 114.415 143.588 111.787L143.571 111.768L143.717 111.781C143.834 111.508 143.951 111.238 144.067 110.971C144.491 109.996 144.901 109.051 145.259 108.087C145.343 107.86 145.431 107.634 145.519 107.407L145.519 107.407C145.95 106.299 146.384 105.184 146.386 103.929C146.427 103.911 146.47 103.893 146.514 103.877C147.657 101.069 148.104 98.1498 148.5 95.1616L148.561 95.1413L148.601 95.1277C148.608 95.027 148.622 94.9297 148.635 94.8359C148.689 94.4576 148.735 94.1374 148.292 93.8878C147.05 93.1887 145.812 92.4847 144.571 91.7791L144.57 91.7788C142.587 90.6514 140.597 89.52 138.577 88.3981C138.602 88.3875 138.63 88.3691 138.599 88.3454C138.513 88.3031 138.472 88.2945 138.446 88.3155C138.438 88.305 138.43 88.2935 138.422 88.2808C138.415 88.2701 138.407 88.2585 138.4 88.246C138.377 88.2106 138.302 88.1942 138.248 88.2352L138.244 88.2171C138.242 88.2065 138.24 88.1956 138.238 88.1846L138.231 88.1569L138.227 88.1403C137.95 87.98 137.675 87.82 137.4 87.6606L137.163 87.523L137.156 87.5191C135.446 86.5267 133.77 85.5541 132.071 84.6238C129.333 83.1244 126.592 81.6265 123.85 80.1356C123.138 79.7484 122.427 79.3572 121.716 78.9655L121.715 78.9645L121.713 78.9636L121.711 78.9627L121.71 78.9618L121.708 78.9609L121.706 78.96L121.704 78.9591L121.703 78.9581L121.701 78.9572L121.699 78.9563L121.698 78.9554L121.696 78.9545L121.694 78.9536L121.693 78.9526L121.691 78.9517L121.689 78.9508C119.38 77.679 117.06 76.4008 114.62 75.2248L114.617 75.2245C114.637 75.2099 114.656 75.1949 114.675 75.1796L114.348 75.0065C110.946 73.2048 107.6 71.4324 104.22 69.7272C99.9395 67.5679 95.648 65.4119 90.8213 64.7059C86.6368 64.0937 82.6271 64.5279 79.0642 66.9983C75.6101 69.3933 75.4295 73.9233 78.6862 76.5884C78.6759 76.6262 78.667 76.6661 78.6594 76.7084C78.6979 76.7461 78.727 76.7692 78.7564 76.7926C78.7802 76.8114 78.8042 76.8305 78.8336 76.8576C78.8306 76.8585 78.8277 76.8597 78.8248 76.8611C78.8678 76.9416 78.9114 76.9724 78.9483 76.96C78.9742 76.982 79.0018 77.0063 79.0379 77.0435C79.762 77.7376 80.5517 78.1997 81.3916 78.5802C84.3115 79.903 87.4499 80.2987 90.5831 80.5466C93.9614 80.8141 97.3036 81.2174 100.601 81.9996C103.229 82.6229 105.792 83.5331 108.109 84.8424C110.408 86.142 112.519 87.8349 114.352 89.8904L114.352 89.8903C115.647 91.571 116.397 93.5392 117.138 95.4829L117.14 95.4889L117.146 95.5054C117.205 95.659 117.263 95.8125 117.322 95.9657L117.317 95.9738C117.382 96.4389 117.448 96.8914 117.513 97.3359C117.627 98.1127 117.738 98.8655 117.829 99.6207C117.952 100.642 117.858 101.654 117.762 102.685V102.685V102.685V102.685L117.762 102.685C117.703 103.316 117.643 103.953 117.633 104.604L117.526 104.602C116.913 107.261 115.829 109.642 114.594 111.933L114.556 111.961L114.544 111.97C114.509 111.996 114.475 112.022 114.442 112.045C114.447 112.046 114.447 112.039 114.441 112.05C114.439 112.053 114.438 112.057 114.436 112.062C114.433 112.069 114.43 112.078 114.426 112.09C114.419 112.109 114.411 112.127 114.403 112.145C114.401 112.116 114.396 112.087 114.386 112.058C114.259 112.209 114.176 112.338 114.143 112.45L114.134 112.457L114.134 112.458C114.118 112.471 114.102 112.485 114.086 112.5C114.074 112.51 114.063 112.52 114.052 112.53C114.039 112.542 114.026 112.553 114.013 112.566C112.34 114.795 110.409 116.647 108.2 118.218C106.024 119.766 103.614 120.857 101.124 121.973L101.124 121.976C100.23 122.215 99.3516 122.427 98.489 122.635L98.4888 122.635C98.0527 122.741 97.6207 122.845 97.193 122.951C96.7129 123.07 96.5233 123.259 96.5335 123.761C96.5455 124.354 96.554 124.947 96.5626 125.542V125.543V125.543V125.543V125.544C96.5809 126.828 96.5995 128.124 96.6542 129.459L96.6596 129.464L96.6057 129.457L96.5713 129.452C96.5642 129.627 96.576 129.728 96.5952 129.877L96.5954 129.878C96.5883 129.877 96.5801 129.877 96.5708 129.878C96.5582 129.915 96.577 129.978 96.5947 129.999C96.5934 130.017 96.5919 130.036 96.5902 130.056L96.5846 130.12L96.5845 130.12L96.5838 130.128C96.6095 132.532 96.6447 134.832 96.742 137.206C96.7111 137.216 96.6803 137.225 96.6494 137.235C96.6142 137.739 96.6083 138.142 96.6045 138.546C96.5757 141.611 96.5471 144.676 96.5641 147.743C96.5542 147.745 96.5439 147.748 96.5325 147.751C96.5029 147.76 96.4665 147.771 96.4138 147.781C90.3286 147.778 84.3471 147.779 78.3207 147.84C78.321 147.799 78.3203 147.752 78.3186 147.678L78.3168 147.396C78.2959 144.159 78.2756 141.015 78.1629 137.873C78.2019 137.822 78.2392 137.765 78.2748 137.701C78.2679 135.03 78.2472 132.461 78.1312 129.894C78.1719 129.842 78.2109 129.784 78.2479 129.719C78.2588 128.128 78.2499 126.624 78.2411 125.126V125.126V125.125V125.125V125.125V125.124V125.124V125.123V125.123V125.123V125.122V125.122V125.121V125.121V125.12V125.12V125.119V125.119V125.118V125.118V125.118V125.117V125.116V125.116V125.115V125.115V125.114V125.113L78.2389 124.742L78.2388 124.694L78.2389 124.66C78.2398 124.353 78.2407 124.045 77.9015 123.875C77.3756 123.611 76.8639 123.32 76.3501 123.027C75.3262 122.445 74.2942 121.858 73.1258 121.47L73.0581 121.456C73.0723 121.448 73.0865 121.44 73.1006 121.431L73.1222 121.418L73.1444 121.404C72.5369 120.849 71.8495 120.496 71.1728 120.149L71.1727 120.149C70.9088 120.013 70.6465 119.879 70.3912 119.733C66.5488 117.543 62.694 115.375 58.7489 113.231C58.7539 113.195 58.7574 113.157 58.7593 113.118C55.4976 111.159 52.2819 109.26 48.9605 107.36L48.9314 107.352C48.9627 107.335 48.9939 107.318 49.025 107.3C45.9033 105.362 42.8227 103.485 39.6723 101.608L39.6533 101.603C39.6711 101.587 39.6895 101.568 39.7086 101.548C39.4998 101.405 39.3171 101.309 39.1452 101.266C39.1097 101.224 39.0747 101.179 39.0387 101.132C38.9156 101.038 38.8172 100.993 38.624 100.922C38.591 100.908 38.558 100.896 38.5251 100.883C38.5744 100.883 38.6237 100.884 38.673 100.885C34.0047 97.8479 29.3822 94.8737 24.5855 91.7875L24.5851 91.7873L24.582 91.7853C24.9088 95.2913 25.4036 98.517 26.3924 101.622C26.3715 101.672 26.3513 101.724 26.3316 101.777C26.8752 103.966 27.4374 106.06 28.4539 108.034C28.4263 108.078 28.4005 108.126 28.3766 108.179C29.1862 110.578 30.1504 112.823 31.4973 114.914C31.4811 114.961 31.4671 115.01 31.4554 115.063C32.9664 118.057 34.6924 120.825 36.7568 123.311C36.7667 123.39 36.7866 123.477 36.8176 123.571C37.145 124.049 37.451 124.464 37.7787 124.86L37.8723 124.974L37.8724 124.974C39.7377 127.233 41.6041 129.493 43.9562 131.408C43.9401 131.428 43.9241 131.448 43.9084 131.469C46.7971 134.228 49.8126 136.714 53.3156 138.727C53.3057 138.735 53.2958 138.743 53.286 138.751L53.2718 138.763L53.2567 138.775C53.5817 139.088 53.97 139.266 54.3433 139.437C54.6509 139.578 54.9482 139.714 55.1917 139.917C56.2169 140.77 57.3992 141.33 58.5702 141.885C58.8008 141.994 59.031 142.103 59.2595 142.214C65.2851 145.141 71.6311 147.077 78.2753 147.959ZM99.857 97.5832C99.811 97.5888 99.7556 97.5308 99.6781 97.4157C99.7199 97.4123 99.7836 97.4659 99.857 97.5832Z" fill="url(#paint0_linear_47_7581)"/>
</g>
<defs>
<linearGradient id="paint0_linear_47_7581" x1="86.6578" y1="0.238281" x2="86.6578" y2="171.758" gradientUnits="userSpaceOnUse">
<stop stop-color="#FED244"/>
<stop offset="1" stop-color="#F39B37"/>
</linearGradient>
<clipPath id="clip0_47_7581">
<rect x="0.894531" y="0.238281" width="171.523" height="171.523" rx="30.0918" fill="white"/>
</clipPath>
</defs>
</svg>
