<svg width="210" height="19" viewBox="0 0 210 19" fill="none" xmlns="http://www.w3.org/2000/svg">
<g clip-path="url(#clip0_47_7621)">
<path d="M13.6472 13.0061C13.6472 16.0123 11.3498 18.1385 7.34161 18.1385C4.45769 18.1385 2.01369 17.1609 0.15625 15.4257L1.91593 13.2505C3.45565 14.6436 5.23977 15.5235 7.43937 15.5235C9.51677 15.5235 10.5921 14.497 10.5921 13.2994C10.5921 11.9063 9.39457 11.442 6.70617 10.8065C3.23569 10 0.81613 8.998 0.81613 5.84524C0.81613 2.91244 3.30901 0.761719 6.85281 0.761719C9.51677 0.761719 11.5208 1.666 13.2072 3.10796L11.5452 5.35644C10.0789 4.08556 8.39253 3.3768 6.73061 3.3768C5.04425 3.3768 3.89557 4.40328 3.89557 5.5764C3.89557 6.94504 5.14201 7.43384 7.80597 8.04484C11.3008 8.82692 13.6472 9.95116 13.6472 13.0061Z" fill="url(#paint0_linear_47_7621)"/>
<path d="M36.9822 5.9382C36.9822 6.82179 36.7738 7.65533 36.357 8.43895C35.9402 9.22251 35.2733 9.86434 34.3564 10.3644C33.4395 10.8479 32.2642 11.0897 30.8304 11.0897H27.6795V18.1417H24.6465V0.761719H30.8304C32.1641 0.761719 33.2895 0.99512 34.2064 1.46192C35.14 1.91205 35.8318 2.5289 36.282 3.31245C36.7488 4.09601 36.9822 4.97126 36.9822 5.9382ZM30.8304 8.76403C31.9141 8.76403 32.7226 8.52228 33.2561 8.0388C33.7896 7.53869 34.0563 6.83846 34.0563 5.9382C34.0563 4.03766 32.981 3.08739 30.8304 3.08739H27.6795V8.76403H30.8304Z" fill="url(#paint1_linear_47_7621)"/>
<path d="M50.8291 3.08405V8.17816H59.2641V10.5005H50.8291V15.8194H59.2641V18.1417H47.9824V0.761719H59.2641V3.08405H50.8291Z" fill="url(#paint2_linear_47_7621)"/>
<path d="M70.2637 17.552H73.3187V5.74748L82.1904 17.552H85.221V0.761719H82.1904V12.5662L73.3187 0.761719H70.2637V17.552Z" fill="url(#paint3_linear_47_7621)"/>
<path d="M101.899 0.761719C103.75 0.761719 105.367 1.12016 106.75 1.83703C108.151 2.53724 109.226 3.55419 109.976 4.88791C110.743 6.20496 111.127 7.74708 111.127 9.51424C111.127 11.2814 110.743 12.8152 109.976 14.1156C109.226 15.416 108.151 16.4162 106.75 17.1164C105.367 17.7999 103.75 18.1417 101.899 18.1417H96.2227V0.761719H101.899ZM101.899 15.816C103.933 15.816 105.492 15.2659 106.575 14.1656C107.659 13.0653 108.201 11.5148 108.201 9.51424C108.201 7.49703 107.659 5.92154 106.575 4.78788C105.492 3.65422 103.933 3.08739 101.899 3.08739H99.0735V15.816H101.899Z" fill="url(#paint4_linear_47_7621)"/>
<path d="M137.094 0.761719L131.645 17.5517H128.456L122.127 0.761719H125.181L130.051 14.7252L134.065 0.761719H137.094Z" fill="url(#paint5_linear_47_7621)"/>
<path d="M150.94 3.08405V8.17816H159.375V10.5005H150.94V15.8194H159.375V18.1417H148.094V0.761719H159.375V3.08405H150.94Z" fill="url(#paint6_linear_47_7621)"/>
<path d="M183.866 13.0061C183.866 16.0123 181.568 18.1385 177.56 18.1385C174.676 18.1385 172.232 17.1609 170.375 15.4257L172.134 13.2505C173.674 14.6436 175.458 15.5235 177.658 15.5235C179.735 15.5235 180.811 14.497 180.811 13.2994C180.811 11.9063 179.613 11.442 176.925 10.8065C173.454 10 171.035 8.998 171.035 5.84524C171.035 2.91244 173.528 0.761719 177.071 0.761719C179.735 0.761719 181.739 1.666 183.426 3.10796L181.764 5.35644C180.297 4.08556 178.611 3.3768 176.949 3.3768C175.263 3.3768 174.114 4.40328 174.114 5.5764C174.114 6.94504 175.361 7.43384 178.024 8.04484C181.519 8.82692 183.866 9.95116 183.866 13.0061Z" fill="url(#paint7_linear_47_7621)"/>
<path d="M200.242 17.552H203.272V3.54788H208.649V0.761719H194.865V3.54788H200.242V17.552Z" fill="url(#paint8_linear_47_7621)"/>
</g>
<defs>
<linearGradient id="paint0_linear_47_7621" x1="6.9017" y1="0.761719" x2="6.9017" y2="18.1385" gradientUnits="userSpaceOnUse">
<stop stop-color="#FFCE45"/>
<stop offset="1" stop-color="#FEA049"/>
</linearGradient>
<linearGradient id="paint1_linear_47_7621" x1="30.8143" y1="0.761719" x2="30.8143" y2="18.1417" gradientUnits="userSpaceOnUse">
<stop stop-color="#FFCE45"/>
<stop offset="1" stop-color="#FEA049"/>
</linearGradient>
<linearGradient id="paint2_linear_47_7621" x1="53.6233" y1="0.761719" x2="53.6233" y2="18.1417" gradientUnits="userSpaceOnUse">
<stop stop-color="#FFCE45"/>
<stop offset="1" stop-color="#FEA049"/>
</linearGradient>
<linearGradient id="paint3_linear_47_7621" x1="77.7423" y1="0.761719" x2="77.7423" y2="17.552" gradientUnits="userSpaceOnUse">
<stop stop-color="#FFCE45"/>
<stop offset="1" stop-color="#FEA049"/>
</linearGradient>
<linearGradient id="paint4_linear_47_7621" x1="103.675" y1="0.761719" x2="103.675" y2="18.1417" gradientUnits="userSpaceOnUse">
<stop stop-color="#FFCE45"/>
<stop offset="1" stop-color="#FEA049"/>
</linearGradient>
<linearGradient id="paint5_linear_47_7621" x1="129.61" y1="0.761719" x2="129.61" y2="17.5517" gradientUnits="userSpaceOnUse">
<stop stop-color="#FFCE45"/>
<stop offset="1" stop-color="#FEA049"/>
</linearGradient>
<linearGradient id="paint6_linear_47_7621" x1="153.734" y1="0.761719" x2="153.734" y2="18.1417" gradientUnits="userSpaceOnUse">
<stop stop-color="#FFCE45"/>
<stop offset="1" stop-color="#FEA049"/>
</linearGradient>
<linearGradient id="paint7_linear_47_7621" x1="177.121" y1="0.761719" x2="177.121" y2="18.1385" gradientUnits="userSpaceOnUse">
<stop stop-color="#FFCE45"/>
<stop offset="1" stop-color="#FEA049"/>
</linearGradient>
<linearGradient id="paint8_linear_47_7621" x1="201.757" y1="0.761719" x2="201.757" y2="17.552" gradientUnits="userSpaceOnUse">
<stop stop-color="#FFCE45"/>
<stop offset="1" stop-color="#FEA049"/>
</linearGradient>
<clipPath id="clip0_47_7621">
<rect width="209" height="18" fill="white" transform="translate(0.15625 0.761719)"/>
</clipPath>
</defs>
</svg>
